<?xml version="1.0" encoding="utf-8"?>
<!-- Generator: Adobe Illustrator 16.0.3, SVG Export Plug-In . SVG Version: 6.00 Build 0)  -->
<!DOCTYPE svg PUBLIC "-//W3C//DTD SVG 1.1//EN" "http://www.w3.org/Graphics/SVG/1.1/DTD/svg11.dtd">
<svg version="1.1" id="Layer_1" xmlns="http://www.w3.org/2000/svg" xmlns:xlink="http://www.w3.org/1999/xlink" x="0px" y="0px"
	 width="512px" height="512px" viewBox="0 0 512 512" enable-background="new 0 0 512 512" xml:space="preserve">
<path id="link-icon" d="M132.007,186.007c9.379-9.358,19.759-17.087,30.809-23.191c61.608-33.941,140.598-15.882,180.167,44.152
	l-47.922,47.873c-13.696-31.331-47.827-49.135-81.78-41.562c-12.772,2.878-24.915,9.234-34.829,19.173l-91.839,91.83
	c-27.887,27.839-27.886,73.229,0.002,101.131c27.873,27.858,73.235,27.858,101.119,0l28.298-28.346
	c25.739,10.236,53.388,14.341,80.585,12.287l-62.437,62.471c-53.592,53.566-140.438,53.566-193.999,0
	c-53.569-53.576-53.57-140.401-0.001-193.955L132.007,186.007z M277.871,40.179l-62.521,62.484
	c27.237-2.045,54.833,2.042,80.622,12.26l28.311-28.311c27.841-27.888,73.229-27.888,101.132,0
	c27.859,27.874,27.859,73.235,0,101.121l-91.866,91.815c-27.97,27.97-73.417,27.775-101.095,0
	c-6.472-6.471-12.043-14.51-15.511-22.435l-47.921,47.921c5.025,7.606,10.263,14.26,16.986,20.96
	c17.322,17.367,39.412,30.223,64.764,36.38c32.862,7.885,68.153,3.522,98.378-13.226c11.057-6.078,21.45-13.76,30.846-23.154
	l91.835-91.815c53.564-53.591,53.564-140.438,0.002-194C418.253-13.39,331.426-13.39,277.871,40.179z"/>
</svg>
